<svg version="1.1" id="Capa_1" xmlns="http://www.w3.org/2000/svg" x="0" y="0" viewBox="0 0 60 60" xml:space="preserve"><path d="M30 25v-2h-6.1c-.5-3.4-3.4-6-6.9-6H7c-3.9 0-7 3.1-7 7v14h2V24c0-2.8 2.2-5 5-5h1v8H7v-2H5v34c0 .6.4 1 1 1h12c.6 0 1-.4 1-1V25h-2v2h-1v-8h1c2.8 0 5 2.2 5 5 0 .6.4 1 1 1h7zM17 58h-4V40h2v-2H9v2h2v18H7V29h10v29zm-3-31h-4v-8h4v8zM6 11c0 2.8 2.2 5 5 5h2c2.8 0 5-2.2 5-5V9h2V7h-2V5c0-2.8-2.2-5-5-5h-2C8.2 0 6 2.2 6 5v2H4v2h2v2zm10 0c0 1.7-1.3 3-3 3h-2c-1.7 0-3-1.3-3-3V9h8v2zM8 5c0-1.7 1.3-3 3-3v3h2V2c1.7 0 3 1.3 3 3v2H8V5z"/><path d="M9 32h2v2H9zm4 0h2v2h-2zm46-12H33c-.6 0-1 .4-1 1v21h-7c-.6 0-1 .4-1 1v16c0 .6.4 1 1 1h34c.6 0 1-.4 1-1V21c0-.6-.4-1-1-1zm-11 2v6h-4v-6h4zm-14 0h8v7c0 .6.4 1 1 1h6c.6 0 1-.4 1-1v-7h8v20H34V22zm15 22h2v4h-2v-4zm-16 0h1v4h-2v-4h1zm-7 0h4v5c0 .6.4 1 1 1h4c.6 0 1-.4 1-1v-5h4v14H26V44zm32 14H42V44h5v5c0 .6.4 1 1 1h4c.6 0 1-.4 1-1v-5h5v14z"/><path d="M23 28h7v2h-7zm5 25h2v2h-2zm4 0h2v2h-2zm12 0h2v2h-2zm4 0h2v2h-2zM37 34h4v2h-4zm0 4h8v2h-8z"/></svg>