<svg version="1.1" id="Capa_1" xmlns="http://www.w3.org/2000/svg" x="0" y="0" viewBox="0 0 182.296 182.296" xml:space="preserve"><path d="M154.32 182.296c-7.046 0-12.779-5.732-12.779-12.778 0-6.191 4.426-11.368 10.279-12.534v-5.019H47.298v5.019c5.854 1.166 10.279 6.343 10.279 12.534 0 7.046-5.733 12.778-12.779 12.778s-12.779-5.732-12.779-12.778c0-6.191 4.425-11.368 10.279-12.534v-5.035c-15.167-.519-27.345-13.018-27.345-28.309V15.646c-3.203-1.054-5.522-4.072-5.522-7.623C9.432 3.599 13.03 0 17.454 0c4.423 0 8.021 3.599 8.021 8.022 0 3.551-2.319 6.569-5.521 7.623V123.64c0 12.861 10.463 23.325 23.325 23.325h127.086a2.5 2.5 0 1 1 0 5H156.82v5.019c5.854 1.166 10.279 6.343 10.279 12.534 0 7.045-5.733 12.778-12.779 12.778zm0-20.558c-4.29 0-7.779 3.49-7.779 7.779s3.49 7.778 7.779 7.778 7.779-3.489 7.779-7.778-3.49-7.779-7.779-7.779zm-109.522 0c-4.289 0-7.779 3.49-7.779 7.779s3.49 7.778 7.779 7.778c4.29 0 7.779-3.489 7.779-7.778s-3.489-7.779-7.779-7.779zM17.454 5a3.025 3.025 0 0 0-3.022 3.022 3.024 3.024 0 0 0 3.022 3.021 3.024 3.024 0 0 0 3.021-3.021A3.024 3.024 0 0 0 17.454 5zM154.32 143.81H44.798a2.5 2.5 0 0 1-2.5-2.5v-39.417a2.5 2.5 0 0 1 2.5-2.5h3.116V63.34c0-5.79 4.71-10.5 10.5-10.5h52.3c5.79 0 10.5 4.71 10.5 10.5v36.053h6.001V79.72a2.5 2.5 0 0 1 2.5-2.5h19.751a2.5 2.5 0 0 1 2.5 2.5v19.673h2.354a2.5 2.5 0 0 1 2.5 2.5v39.417a2.5 2.5 0 0 1-2.5 2.5zm-107.022-5H151.82v-34.417H47.298v34.417zm84.917-39.417h14.751V82.22h-14.751v17.173zm-79.301 0h63.3V63.34c0-3.033-2.467-5.5-5.5-5.5h-52.3a5.506 5.506 0 0 0-5.5 5.5v36.053z"/></svg>