<svg xmlns="http://www.w3.org/2000/svg" height="512pt" viewBox="0 -96 512 512" width="512pt"><g id="surface1"><path d="M127.742 256.5c-8.555 0-15.515 6.96-15.515 15.516 0 8.554 6.96 15.515 15.515 15.515s15.516-6.96 15.516-15.515-6.961-15.516-15.516-15.516zm304.613 0c-8.554 0-15.515 6.96-15.515 15.516 0 8.554 6.96 15.515 15.515 15.515s15.516-6.96 15.516-15.515-6.96-15.516-15.516-15.516zm0 0"/><path d="M503.984 242.41v-33.222a31.505 31.505 0 0 0-21.574-29.93l-53.387-17.797-31.468-44.047c-3.516-4.922-8.344-8.652-13.813-10.875V95.672c0-12.977-10.558-23.531-23.531-23.531-12.977 0-23.531 10.554-23.531 23.53v8.532h-17.067V87.645c0-9.829-6.054-18.262-14.633-21.778-.05-.023-.101-.055-.16-.074L144.47 1.653c-12.04-4.762-25.75 1.12-30.559 13.124-4.812 12.043 1.067 25.766 13.11 30.594l1.238.492v50.965c0 6.8 4.105 12.742 10.215 14.79a8.52 8.52 0 0 1 5.816 8.093c0 4.703-3.824 8.531-8.531 8.531-4.703 0-8.531-3.828-8.531-8.531a7.5 7.5 0 0 0-7.5-7.5 7.5 7.5 0 0 0-7.5 7.5c0 12.977 10.554 23.531 23.53 23.531 12.977 0 23.532-10.558 23.532-23.531a23.506 23.506 0 0 0-15.875-22.258 1.319 1.319 0 0 1-.156-.625v-44.96l129.293 51.714v120.856h-17.067v-40.602a7.5 7.5 0 1 0-15 0v40.598H122.13c-7.84 0-15.52 1.425-22.836 4.242L4.81 265.016a7.495 7.495 0 0 0-4.809 7v8.015c0 4.14 3.36 7.5 7.5 7.5h75.273c6.45 18.637 24.165 32.063 44.97 32.063 20.804 0 38.519-13.426 44.968-32.063h214.676c6.449 18.637 24.164 32.063 44.968 32.063 20.801 0 38.52-13.426 44.97-32.063h19.16c8.554 0 15.515-6.96 15.515-15.515V255.98c0-5.835-3.242-10.921-8.016-13.57zm-94.222-82.105H360.21c-4.707 0-8.535-3.828-8.535-8.532v-32.57h20.207c5.332 0 10.367 2.59 13.465 6.93zM360.21 87.137c4.703 0 8.531 3.828 8.531 8.531v8.535h-17.066v-8.535c0-4.703 3.828-8.531 8.535-8.531zm-232.375-66.79c1.742-4.35 6.73-6.48 11.09-4.757l139.98 55.992a23.418 23.418 0 0 0-6.351 15.844L132.594 31.44c-4.367-1.75-6.504-6.73-4.758-11.093zm159.71 67.298c0-4.707 3.829-8.532 8.532-8.532 4.707 0 8.535 3.828 8.535 8.532v136.789h-17.066zM27.052 272.53l58.515-22.508a47.292 47.292 0 0 0-5.406 21.993c0 .171.012.343.016.515zm100.691 32.063c-17.965 0-32.582-14.614-32.582-32.578 0-17.965 14.617-32.582 32.582-32.582s32.582 14.617 32.582 32.582c0 17.964-14.617 32.578-32.582 32.578zm34.63-65.16h142.241v33.097H175.31c.004-.172.015-.344.015-.515 0-12.598-4.933-24.059-12.953-32.582zm157.241 33.097V119.203h17.063v32.57c0 12.977 10.558 23.532 23.535 23.532h62.91l54.547 18.183a16.513 16.513 0 0 1 11.285 14.914h-8.504c-4.14 0-7.5 3.36-7.5 7.5 0 4.141 3.36 7.5 7.5 7.5h8.535v17.063H467.93c-8.723-9.824-21.434-16.031-35.575-16.031h-88.18a7.5 7.5 0 1 0 0 15h53.552c-8.024 8.523-12.954 19.984-12.954 32.582 0 .171.012.343.012.515zm112.742 32.063c-17.964 0-32.582-14.614-32.582-32.578 0-17.965 14.618-32.582 32.582-32.582 17.965 0 32.582 14.617 32.582 32.582 0 17.964-14.617 32.578-32.582 32.578zM497 272.016c0 .285-.23.515-.516.515h-16.562c.004-.172.015-.344.015-.515a47.403 47.403 0 0 0-2.972-16.551h19.52c.285 0 .515.23.515.515zm0 0"/></g></svg>