<?xml version="1.0" encoding="iso-8859-1"?>
<!-- Generator: Adobe Illustrator 17.1.0, SVG Export Plug-In . SVG Version: 6.00 Build 0)  -->
<!DOCTYPE svg PUBLIC "-//W3C//DTD SVG 1.1//EN" "http://www.w3.org/Graphics/SVG/1.1/DTD/svg11.dtd">
<svg version="1.1" id="Capa_1" xmlns="http://www.w3.org/2000/svg" xmlns:xlink="http://www.w3.org/1999/xlink" x="0px" y="0px"
	 viewBox="0 0 182.296 182.296" style="enable-background:new 0 0 182.296 182.296;" xml:space="preserve">
<path d="M154.32,182.296c-7.046,0-12.779-5.732-12.779-12.778c0-6.191,4.426-11.368,10.279-12.534v-5.019H47.298v5.019
	c5.854,1.166,10.279,6.343,10.279,12.534c0,7.046-5.733,12.778-12.779,12.778s-12.779-5.732-12.779-12.778
	c0-6.191,4.425-11.368,10.279-12.534v-5.035c-15.167-0.519-27.345-13.018-27.345-28.309V15.646
	c-3.203-1.054-5.522-4.072-5.522-7.623C9.432,3.599,13.03,0,17.454,0c4.423,0,8.021,3.599,8.021,8.022
	c0,3.551-2.319,6.569-5.521,7.623V123.64c0,12.861,10.463,23.325,23.325,23.325h127.086c1.381,0,2.5,1.119,2.5,2.5
	s-1.119,2.5-2.5,2.5H156.82v5.019c5.854,1.166,10.279,6.343,10.279,12.534C167.099,176.563,161.366,182.296,154.32,182.296z
	 M154.32,161.738c-4.29,0-7.779,3.49-7.779,7.779s3.49,7.778,7.779,7.778c4.289,0,7.779-3.489,7.779-7.778
	S158.609,161.738,154.32,161.738z M44.798,161.738c-4.289,0-7.779,3.49-7.779,7.779s3.49,7.778,7.779,7.778
	c4.29,0,7.779-3.489,7.779-7.778S49.088,161.738,44.798,161.738z M17.454,5c-1.667,0-3.022,1.355-3.022,3.022
	c0,1.666,1.355,3.021,3.022,3.021c1.666,0,3.021-1.355,3.021-3.021C20.475,6.355,19.12,5,17.454,5z M154.32,143.81H44.798
	c-1.381,0-2.5-1.119-2.5-2.5v-39.417c0-1.381,1.119-2.5,2.5-2.5h3.116V63.34c0-5.79,4.71-10.5,10.5-10.5h52.3
	c5.79,0,10.5,4.71,10.5,10.5v36.053h6.001V79.72c0-1.381,1.119-2.5,2.5-2.5h19.751c1.381,0,2.5,1.119,2.5,2.5v19.673h2.354
	c1.381,0,2.5,1.119,2.5,2.5v39.417C156.82,142.69,155.701,143.81,154.32,143.81z M47.298,138.81H151.82v-34.417H47.298V138.81z
	 M132.215,99.393h14.751V82.22h-14.751V99.393z M52.914,99.393h63.3V63.34c0-3.033-2.467-5.5-5.5-5.5h-52.3
	c-3.033,0-5.5,2.467-5.5,5.5V99.393z"/>
<g>
</g>
<g>
</g>
<g>
</g>
<g>
</g>
<g>
</g>
<g>
</g>
<g>
</g>
<g>
</g>
<g>
</g>
<g>
</g>
<g>
</g>
<g>
</g>
<g>
</g>
<g>
</g>
<g>
</g>
</svg>
