<svg height="511pt" viewBox="0 0 511 511.99975" width="511pt" xmlns="http://www.w3.org/2000/svg"><path d="m48.765625 230.320312c-64.355469 64.355469-64.355469 169.0625 0 233.414063 64.347656 64.351563 169.058594 64.355469 233.410156 0l159.148438-159.144531-84.878907-84.878906-159.144531 159.148437c-17.550781 17.550781-46.109375 17.550781-63.660156 0-17.59375-17.59375-17.59375-46.066406 0-63.660156l159.148437-159.144531-84.878906-84.878907zm350.121094 74.269532-42.441407 42.441406-42.4375-42.441406 42.441407-42.4375zm-286.464844-10.609375c-29.320313 29.320312-29.324219 76.773437 0 106.097656 29.25 29.25 76.847656 29.25 106.097656 0l74.269531-74.269531 42.4375 42.441406-74.269531 74.265625c-52.652343 52.652344-138.320312 52.652344-190.972656 0s-52.652344-138.320313 0-190.972656l74.269531-74.269531 42.4375 42.441406zm95.488281-95.488281-42.4375-42.4375 42.4375-42.4375 42.441406 42.4375zm0 0"/><path d="m338.171875 61.539062c-13.371094-1.914062-27.050781 2.648438-36.601563 12.199219-9.550781 9.550781-14.113281 23.234375-12.203124 36.605469l29.707031-4.246094c-.582031-4.070312.808593-8.234375 3.714843-11.140625s7.066407-4.292969 11.140626-3.714843c13.371093 1.914062 27.054687-2.648438 36.601562-12.199219 9.550781-9.550781 14.113281-23.234375 12.203125-36.601563l-29.707031 4.242188c.578125 4.070312-.808594 8.234375-3.714844 11.140625s-7.066406 4.292969-11.140625 3.714843zm0 0"/><path d="m295.734375 19.097656c-13.378906-1.910156-27.054687 2.652344-36.601563 12.203125-9.550781 9.546875-14.113281 23.230469-12.203124 36.601563l29.707031-4.242188c-.582031-4.070312.808593-8.234375 3.714843-11.140625s7.070313-4.296875 11.140626-3.714843c13.367187 1.910156 27.050781-2.648438 36.601562-12.199219s14.113281-23.234375 12.203125-36.605469l-29.707031 4.246094c.578125 4.066406-.808594 8.230468-3.714844 11.136718-2.90625 2.910157-7.066406 4.296876-11.140625 3.714844zm0 0"/><path d="m406.226562 178.246094-4.242187 29.707031c2.007813.285156 4.019531.425781 6.027344.425781 11.355469 0 22.457031-4.511718 30.574219-12.628906 9.550781-9.550781 14.109374-23.234375 12.199218-36.601562-.578125-4.070313.808594-8.234376 3.714844-11.140626s7.066406-4.296874 11.140625-3.714843l4.242187-29.707031c-13.367187-1.910157-27.050781 2.652343-36.601562 12.203124-9.550781 9.546876-14.113281 23.230469-12.203125 36.601563.582031 4.070313-.808594 8.234375-3.710937 11.140625-2.910157 2.90625-7.074219 4.296875-11.140626 3.714844zm0 0"/><path d="m508.078125 186.730469 4.246094-29.707031c-13.382813-1.910157-27.054688 2.652343-36.605469 12.203124-9.546875 9.550782-14.109375 23.234376-12.199219 36.605469.578125 4.066407-.808593 8.230469-3.714843 11.140625-2.90625 2.90625-7.066407 4.292969-11.140626 3.710938l-4.242187 29.707031c2.007813.289063 4.019531.429687 6.027344.429687 11.355469 0 22.457031-4.515624 30.574219-12.628906 9.550781-9.550781 14.109374-23.234375 12.203124-36.605468-.582031-4.070313.804688-8.234376 3.710938-11.140626s7.074219-4.292968 11.140625-3.714843zm0 0"/></svg>