<svg height="511pt" viewBox="0 0 511 512" width="511pt" xmlns="http://www.w3.org/2000/svg"><path d="M48.766 230.32c-64.356 64.356-64.356 169.063 0 233.414 64.347 64.352 169.058 64.356 233.41 0L441.324 304.59l-84.879-84.88-159.144 159.15c-17.551 17.55-46.11 17.55-63.66 0-17.594-17.594-17.594-46.067 0-63.66l159.148-159.145-84.879-84.88zm350.12 74.27l-42.44 42.441-42.438-42.441 42.441-42.438zm-286.464-10.61c-29.32 29.32-29.324 76.774 0 106.098 29.25 29.25 76.848 29.25 106.098 0l74.27-74.27 42.437 42.442-74.27 74.266c-52.652 52.652-138.32 52.652-190.973 0s-52.652-138.32 0-190.973l74.27-74.27 42.437 42.442zm95.488-95.488l-42.437-42.437 42.437-42.438 42.442 42.438zM338.172 61.54c-13.371-1.915-27.05 2.648-36.602 12.198-9.55 9.551-14.113 23.235-12.203 36.606l29.707-4.246c-.582-4.07.809-8.235 3.715-11.141s7.066-4.293 11.14-3.715c13.372 1.914 27.055-2.648 36.602-12.199 9.551-9.55 14.114-23.234 12.203-36.602l-29.707 4.243c.578 4.07-.808 8.234-3.715 11.14s-7.066 4.293-11.14 3.715zm-42.438-42.442c-13.379-1.91-27.054 2.652-36.601 12.203-9.551 9.547-14.113 23.23-12.203 36.601l29.707-4.242c-.582-4.07.808-8.234 3.715-11.14s7.07-4.297 11.14-3.715c13.367 1.91 27.051-2.649 36.602-12.2S342.207 13.371 340.297 0L310.59 4.246a13.199 13.199 0 0 1-3.715 11.137 13.175 13.175 0 0 1-11.14 3.715zm110.493 159.148l-4.243 29.707c2.008.285 4.02.426 6.028.426 11.355 0 22.457-4.512 30.574-12.629 9.55-9.55 14.11-23.234 12.2-36.602-.579-4.07.808-8.234 3.714-11.14s7.066-4.297 11.14-3.715l4.243-29.707c-13.367-1.91-27.051 2.652-36.602 12.203-9.55 9.547-14.113 23.23-12.203 36.602a13.2 13.2 0 0 1-3.71 11.14 13.199 13.199 0 0 1-11.141 3.715zm101.851 8.484l4.246-29.707c-13.383-1.91-27.054 2.653-36.605 12.204-9.547 9.55-14.11 23.234-12.2 36.605a13.21 13.21 0 0 1-3.714 11.14 13.184 13.184 0 0 1-11.14 3.712l-4.243 29.707c2.008.289 4.02.43 6.027.43 11.356 0 22.457-4.516 30.574-12.63 9.551-9.55 14.11-23.234 12.204-36.605-.582-4.07.804-8.234 3.71-11.14s7.075-4.294 11.141-3.716zm0 0"/></svg>