<svg xmlns="http://www.w3.org/2000/svg" height="512pt" version="1.1" viewBox="0 -96 512 512" width="512pt">
<g id="surface1">
<path d="M 127.742188 256.5 C 119.1875 256.5 112.226562 263.460938 112.226562 272.015625 C 112.226562 280.570312 119.1875 287.53125 127.742188 287.53125 C 136.296875 287.53125 143.257812 280.570312 143.257812 272.015625 C 143.257812 263.460938 136.296875 256.5 127.742188 256.5 Z M 127.742188 256.5 " style=" stroke:none;fill-rule:nonzero;fill:rgb(0%,0%,0%);fill-opacity:1;" />
<path d="M 432.355469 256.5 C 423.800781 256.5 416.839844 263.460938 416.839844 272.015625 C 416.839844 280.570312 423.800781 287.53125 432.355469 287.53125 C 440.910156 287.53125 447.871094 280.570312 447.871094 272.015625 C 447.871094 263.460938 440.910156 256.5 432.355469 256.5 Z M 432.355469 256.5 " style=" stroke:none;fill-rule:nonzero;fill:rgb(0%,0%,0%);fill-opacity:1;" />
<path d="M 503.984375 242.410156 L 503.984375 209.1875 C 503.984375 195.585938 495.316406 183.558594 482.410156 179.257812 L 429.023438 161.460938 L 397.554688 117.414062 C 394.039062 112.492188 389.210938 108.761719 383.742188 106.539062 L 383.742188 95.671875 C 383.742188 82.695312 373.183594 72.140625 360.210938 72.140625 C 347.234375 72.140625 336.679688 82.695312 336.679688 95.671875 L 336.679688 104.203125 L 319.613281 104.203125 L 319.613281 87.644531 C 319.613281 77.816406 313.558594 69.382812 304.980469 65.867188 C 304.929688 65.84375 304.878906 65.8125 304.820312 65.792969 L 144.46875 1.652344 C 132.429688 -3.109375 118.71875 2.773438 113.910156 14.777344 C 109.097656 26.820312 114.976562 40.542969 127.019531 45.371094 L 128.257812 45.863281 L 128.257812 96.828125 C 128.257812 103.628906 132.363281 109.570312 138.472656 111.617188 C 141.953125 112.78125 144.289062 116.035156 144.289062 119.710938 C 144.289062 124.414062 140.464844 128.242188 135.757812 128.242188 C 131.054688 128.242188 127.226562 124.414062 127.226562 119.710938 C 127.226562 115.566406 123.867188 112.210938 119.726562 112.210938 C 115.585938 112.210938 112.226562 115.566406 112.226562 119.710938 C 112.226562 132.6875 122.78125 143.242188 135.757812 143.242188 C 148.734375 143.242188 159.289062 132.683594 159.289062 119.710938 C 159.289062 109.640625 152.917969 100.71875 143.414062 97.453125 C 143.34375 97.332031 143.257812 97.097656 143.257812 96.828125 L 143.257812 51.867188 L 272.550781 103.582031 L 272.550781 224.4375 L 255.484375 224.4375 L 255.484375 183.835938 C 255.484375 179.695312 252.128906 176.335938 247.984375 176.335938 C 243.84375 176.335938 240.484375 179.695312 240.484375 183.835938 L 240.484375 224.433594 L 122.128906 224.433594 C 114.289062 224.433594 106.609375 225.859375 99.292969 228.675781 L 4.808594 265.015625 C 1.910156 266.128906 0 268.910156 0 272.015625 L 0 280.03125 C 0 284.171875 3.359375 287.53125 7.5 287.53125 L 82.773438 287.53125 C 89.222656 306.167969 106.9375 319.59375 127.742188 319.59375 C 148.546875 319.59375 166.261719 306.167969 172.710938 287.53125 L 387.386719 287.53125 C 393.835938 306.167969 411.550781 319.59375 432.355469 319.59375 C 453.15625 319.59375 470.875 306.167969 477.324219 287.53125 L 496.484375 287.53125 C 505.039062 287.53125 512 280.570312 512 272.015625 L 512 255.980469 C 512 250.144531 508.757812 245.058594 503.984375 242.410156 Z M 409.761719 160.304688 L 360.210938 160.304688 C 355.503906 160.304688 351.675781 156.476562 351.675781 151.773438 L 351.675781 119.203125 L 371.882812 119.203125 C 377.214844 119.203125 382.25 121.792969 385.347656 126.132812 Z M 360.210938 87.136719 C 364.914062 87.136719 368.742188 90.964844 368.742188 95.667969 L 368.742188 104.203125 L 351.675781 104.203125 L 351.675781 95.667969 C 351.675781 90.964844 355.503906 87.136719 360.210938 87.136719 Z M 127.835938 20.347656 C 129.578125 15.996094 134.566406 13.867188 138.925781 15.589844 L 278.90625 71.582031 C 275.011719 75.738281 272.609375 81.308594 272.554688 87.425781 L 132.59375 31.441406 C 128.226562 29.691406 126.089844 24.710938 127.835938 20.347656 Z M 287.546875 87.644531 C 287.546875 82.9375 291.375 79.113281 296.078125 79.113281 C 300.785156 79.113281 304.613281 82.941406 304.613281 87.644531 L 304.613281 224.433594 L 287.546875 224.433594 Z M 27.050781 272.53125 L 85.566406 250.023438 C 82.121094 256.605469 80.160156 264.085938 80.160156 272.015625 C 80.160156 272.1875 80.171875 272.359375 80.175781 272.53125 Z M 127.742188 304.59375 C 109.777344 304.59375 95.160156 289.980469 95.160156 272.015625 C 95.160156 254.050781 109.777344 239.433594 127.742188 239.433594 C 145.707031 239.433594 160.324219 254.050781 160.324219 272.015625 C 160.324219 289.980469 145.707031 304.59375 127.742188 304.59375 Z M 162.371094 239.433594 L 304.613281 239.433594 L 304.613281 272.53125 L 175.308594 272.53125 C 175.3125 272.359375 175.324219 272.1875 175.324219 272.015625 C 175.324219 259.417969 170.390625 247.957031 162.371094 239.433594 Z M 319.613281 272.53125 L 319.613281 119.203125 L 336.675781 119.203125 L 336.675781 151.773438 C 336.675781 164.75 347.234375 175.304688 360.210938 175.304688 L 423.121094 175.304688 L 477.667969 193.488281 C 484.1875 195.660156 488.632812 201.59375 488.953125 208.402344 L 480.449219 208.402344 C 476.308594 208.402344 472.949219 211.761719 472.949219 215.902344 C 472.949219 220.042969 476.308594 223.402344 480.449219 223.402344 L 488.984375 223.402344 L 488.984375 240.464844 L 467.929688 240.464844 C 459.207031 230.640625 446.496094 224.433594 432.355469 224.433594 L 344.175781 224.433594 C 340.035156 224.433594 336.675781 227.792969 336.675781 231.933594 C 336.675781 236.078125 340.035156 239.433594 344.175781 239.433594 L 397.726562 239.433594 C 389.703125 247.957031 384.773438 259.417969 384.773438 272.015625 C 384.773438 272.1875 384.785156 272.359375 384.785156 272.53125 Z M 432.355469 304.59375 C 414.390625 304.59375 399.773438 289.980469 399.773438 272.015625 C 399.773438 254.050781 414.390625 239.433594 432.355469 239.433594 C 450.320312 239.433594 464.9375 254.050781 464.9375 272.015625 C 464.9375 289.980469 450.320312 304.59375 432.355469 304.59375 Z M 497 272.015625 C 497 272.300781 496.769531 272.53125 496.484375 272.53125 L 479.921875 272.53125 C 479.925781 272.359375 479.9375 272.1875 479.9375 272.015625 C 479.9375 266.199219 478.882812 260.625 476.964844 255.464844 L 496.484375 255.464844 C 496.769531 255.464844 497 255.695312 497 255.980469 Z M 497 272.015625 " style=" stroke:none;fill-rule:nonzero;fill:rgb(0%,0%,0%);fill-opacity:1;" />
</g>
</svg>